<mxfile host="65bd71144e" pages="4">
    <diagram name="0503" id="h8QAUj8j9_u4T-ZswDpN">
        <mxGraphModel dx="902" dy="549" grid="1" gridSize="10" guides="1" tooltips="1" connect="1" arrows="1" fold="1" page="1" pageScale="1" pageWidth="827" pageHeight="1169" math="0" shadow="0">
            <root>
                <mxCell id="9fn9Vp-uXQXRUbLLEoEW-0"/>
                <mxCell id="9fn9Vp-uXQXRUbLLEoEW-1" parent="9fn9Vp-uXQXRUbLLEoEW-0"/>
                <mxCell id="9fn9Vp-uXQXRUbLLEoEW-2" value="マンションの件はどうなったの?" style="swimlane;whiteSpace=wrap;html=1;startSize=23;" parent="9fn9Vp-uXQXRUbLLEoEW-1" vertex="1">
                    <mxGeometry x="40" y="240" width="320" height="200" as="geometry"/>
                </mxCell>
                <mxCell id="9fn9Vp-uXQXRUbLLEoEW-3" value="&lt;h1 style=&quot;margin-top: 0px;&quot;&gt;Heading&lt;/h1&gt;&lt;div&gt;結局は現状維持。&lt;span style=&quot;background-color: initial;&quot;&gt;今まで通りパレステージ和光に住んでる。&lt;/span&gt;&lt;/div&gt;&lt;div&gt;&lt;br&gt;&lt;/div&gt;" style="text;html=1;whiteSpace=wrap;overflow=hidden;rounded=0;" parent="9fn9Vp-uXQXRUbLLEoEW-2" vertex="1">
                    <mxGeometry x="10" y="30" width="310" height="120" as="geometry"/>
                </mxCell>
                <mxCell id="oOeZGbqx4HoAVTd6Zwmv-0" value="" style="shape=image;verticalLabelPosition=bottom;labelBackgroundColor=default;verticalAlign=top;aspect=fixed;imageAspect=0;image=https://cdn.the-owner.jp/600/400/mCidMfacWrpSmjdJNwlekYMhjXcBoLIR/c2f9acdd-6db6-494c-8a8d-d34d1b1e47a9.jpg;" parent="9fn9Vp-uXQXRUbLLEoEW-2" vertex="1">
                    <mxGeometry x="120" y="93.32999999999998" width="160" height="106.67" as="geometry"/>
                </mxCell>
                <mxCell id="9fn9Vp-uXQXRUbLLEoEW-4" value="&lt;span style=&quot;font-weight: 400; text-align: left;&quot;&gt;608ってどうした?&lt;/span&gt;" style="swimlane;whiteSpace=wrap;html=1;" parent="9fn9Vp-uXQXRUbLLEoEW-1" vertex="1">
                    <mxGeometry x="1280" y="230" width="340" height="160" as="geometry"/>
                </mxCell>
                <mxCell id="9fn9Vp-uXQXRUbLLEoEW-5" value="&lt;h1 style=&quot;margin-top: 0px;&quot;&gt;Heading&lt;/h1&gt;&lt;div&gt;（基本は薫に任せるが）&lt;/div&gt;&lt;div&gt;なんか向こうの親父さんが買ったらしい。&lt;/div&gt;&lt;div&gt;詳しくはわからんけど、&lt;/div&gt;" style="text;html=1;whiteSpace=wrap;overflow=hidden;rounded=0;" parent="9fn9Vp-uXQXRUbLLEoEW-4" vertex="1">
                    <mxGeometry x="10" y="30" width="310" height="120" as="geometry"/>
                </mxCell>
                <mxCell id="9fn9Vp-uXQXRUbLLEoEW-6" value="&lt;span style=&quot;font-weight: 400; text-align: left;&quot;&gt;line&lt;/span&gt;" style="swimlane;whiteSpace=wrap;html=1;" parent="9fn9Vp-uXQXRUbLLEoEW-1" vertex="1">
                    <mxGeometry x="40" y="40" width="320" height="160" as="geometry"/>
                </mxCell>
                <mxCell id="9fn9Vp-uXQXRUbLLEoEW-7" value="&lt;h1 style=&quot;margin-top: 0px;&quot;&gt;&lt;br&gt;&lt;/h1&gt;&lt;div&gt;&lt;div&gt;色々考えたけどマンション購入は一度なしにして他も見てみます&lt;/div&gt;&lt;div&gt;なので今週日曜日の訪問もとりあえず大丈夫です&lt;/div&gt;&lt;div&gt;急な連絡でご心配おかけしました&lt;/div&gt;&lt;/div&gt;" style="text;html=1;whiteSpace=wrap;overflow=hidden;rounded=0;" parent="9fn9Vp-uXQXRUbLLEoEW-6" vertex="1">
                    <mxGeometry x="10" y="30" width="310" height="120" as="geometry"/>
                </mxCell>
                <mxCell id="bJQQWbdfCK1tg6C53SlZ-0" value="そもそもの話、なんでマンション買おうってなった?" style="swimlane;whiteSpace=wrap;html=1;" parent="9fn9Vp-uXQXRUbLLEoEW-1" vertex="1">
                    <mxGeometry x="40" y="480" width="438" height="337.43000000000006" as="geometry"/>
                </mxCell>
                <mxCell id="bJQQWbdfCK1tg6C53SlZ-1" value="&lt;h1 style=&quot;margin-top: 0px;&quot;&gt;Heading&lt;/h1&gt;&lt;div&gt;最終的には、子供、家族のことを考えてだね。&lt;/div&gt;&lt;div&gt;&lt;span style=&quot;background-color: initial;&quot;&gt;籍入れるって考えたときに、ずっと家賃のままでいいわけではないじゃん。&lt;/span&gt;&lt;/div&gt;" style="text;html=1;whiteSpace=wrap;overflow=hidden;rounded=0;" parent="bJQQWbdfCK1tg6C53SlZ-0" vertex="1">
                    <mxGeometry x="10" y="30" width="310" height="120" as="geometry"/>
                </mxCell>
                <mxCell id="oOeZGbqx4HoAVTd6Zwmv-1" value="" style="shape=image;verticalLabelPosition=bottom;labelBackgroundColor=default;verticalAlign=top;aspect=fixed;imageAspect=0;image=https://www.mfr.co.jp/content/dam/mfrcojp/sumai/chishiki_002/img/s166-10.jpg;" parent="bJQQWbdfCK1tg6C53SlZ-0" vertex="1">
                    <mxGeometry x="110" y="140.3" width="328" height="197.13" as="geometry"/>
                </mxCell>
                <mxCell id="bJQQWbdfCK1tg6C53SlZ-2" value="どんなマンションなの?" style="swimlane;whiteSpace=wrap;html=1;" parent="9fn9Vp-uXQXRUbLLEoEW-1" vertex="1">
                    <mxGeometry x="400" y="240" width="320" height="160" as="geometry"/>
                </mxCell>
                <mxCell id="bJQQWbdfCK1tg6C53SlZ-3" value="&lt;h1 style=&quot;margin-top: 0px;&quot;&gt;Heading&lt;/h1&gt;&lt;div&gt;シェリエっていうマンションで価格が2900万&lt;/div&gt;&lt;div&gt;&lt;br&gt;&lt;/div&gt;" style="text;html=1;whiteSpace=wrap;overflow=hidden;rounded=0;" parent="bJQQWbdfCK1tg6C53SlZ-2" vertex="1">
                    <mxGeometry x="10" y="30" width="310" height="120" as="geometry"/>
                </mxCell>
            </root>
        </mxGraphModel>
    </diagram>
    <diagram name="説得" id="dhC7dpjMyy3n1bbPjUTI">
        <mxGraphModel dx="902" dy="549" grid="1" gridSize="10" guides="1" tooltips="1" connect="1" arrows="1" fold="1" page="1" pageScale="1" pageWidth="827" pageHeight="1169" math="0" shadow="0">
            <root>
                <mxCell id="0"/>
                <mxCell id="1" parent="0"/>
                <mxCell id="foG0x-CLaeSb250egE1I-1" value="前段" style="swimlane;whiteSpace=wrap;html=1;" parent="1" vertex="1">
                    <mxGeometry x="40" y="40" width="320" height="320" as="geometry"/>
                </mxCell>
                <mxCell id="foG0x-CLaeSb250egE1I-4" value="&lt;h1 style=&quot;margin-top: 0px;&quot;&gt;Heading&lt;/h1&gt;&lt;div&gt;まず、これは俺と薫の人生の話かつ、俺と薫と向こうの実家のお金の話です。&lt;/div&gt;&lt;div&gt;なので、色々言いたいことあるだろうけどもまずは俺の意見を理性的に聞いてほしい。&lt;/div&gt;&lt;div&gt;&lt;br&gt;&lt;/div&gt;&lt;div&gt;- 利害関係者の話&lt;/div&gt;&lt;div&gt;- 環境の話&lt;/div&gt;&lt;div&gt;- 資産の話&lt;/div&gt;&lt;div&gt;&lt;br&gt;&lt;/div&gt;&lt;div&gt;- 前提条件 ： 利害関係者が誰なのか?&lt;/div&gt;&lt;div&gt;最終的な利害関係者は自分と薫（+@資金援助していただける勝康さん）&lt;br&gt;&lt;/div&gt;&lt;div&gt;その上で、&lt;b&gt;自分と薫が納得できる買い物ができるかどうかが大事。&lt;/b&gt;&lt;/div&gt;&lt;div&gt;&lt;br&gt;&lt;/div&gt;" style="text;html=1;whiteSpace=wrap;overflow=hidden;rounded=0;" parent="foG0x-CLaeSb250egE1I-1" vertex="1">
                    <mxGeometry x="10" y="30" width="310" height="290" as="geometry"/>
                </mxCell>
                <mxCell id="3SkstiafYZ7fMF2HQmnw-1" value="" style="shape=image;verticalLabelPosition=bottom;labelBackgroundColor=default;verticalAlign=top;aspect=fixed;imageAspect=0;image=https://prd-cdn-netmoney.storage.googleapis.com/images/YioWkUtnIEKkJemzrWbVTOXSDBUvpTLG/c96af983-182e-4b58-be43-63038ae558f5.jpg;" parent="1" vertex="1">
                    <mxGeometry x="1150" y="660" width="600" height="400" as="geometry"/>
                </mxCell>
                <mxCell id="3SkstiafYZ7fMF2HQmnw-2" value="利害関係" style="swimlane;whiteSpace=wrap;html=1;" parent="1" vertex="1">
                    <mxGeometry x="440" y="40" width="340" height="410" as="geometry"/>
                </mxCell>
                <mxCell id="3SkstiafYZ7fMF2HQmnw-3" value="&lt;h1 style=&quot;margin-top: 0px;&quot;&gt;Heading&lt;/h1&gt;&lt;div&gt;&lt;span style=&quot;background-color: initial;&quot;&gt;購入するときの契約としては「峰岸零」と「石川薫(峰岸薫)」の名義で購入します。名義の割合なんだけど自分が50%以上。6対4（&lt;/span&gt;&lt;span style=&quot;background-color: initial;&quot;&gt;2040&lt;/span&gt;&lt;span style=&quot;background-color: initial;&quot;&gt;：&lt;/span&gt;&lt;span style=&quot;background-color: initial;&quot;&gt;1360&lt;/span&gt;&lt;span style=&quot;background-color: initial;&quot;&gt;）&lt;/span&gt;&lt;br&gt;&lt;/div&gt;&lt;div&gt;・支払いについては、向こうの1360のうち、1000万は親から出す。（贈与税の観点から、608に住む場合はそうしようという話になっている）&lt;/div&gt;&lt;div&gt;・残りの2040については最初は向こうが一括で購入する。&lt;/div&gt;&lt;div&gt;その後、口座への振替という形式で履歴を残しながら&lt;/div&gt;&lt;div&gt;自分が支払います。利子をつけないと贈与税に該当してしまう。住宅ローンの基準の金利が固定で2%。&lt;/div&gt;&lt;div&gt;贈与税の制度上、市場よりも金利は下げていいから2%&lt;/div&gt;&lt;div&gt;単利→これを想定。&lt;/div&gt;&lt;div&gt;&lt;br&gt;&lt;/div&gt;&lt;div&gt;→最終的にはこれも書面を作成します。&lt;/div&gt;&lt;div&gt;&lt;b&gt;12年で毎月12万円を支払うことで返済可能。&lt;/b&gt;&lt;/div&gt;&lt;div&gt;→実質賃貸と同じで&lt;/div&gt;&lt;div&gt;&lt;br&gt;&lt;/div&gt;&lt;div&gt;まとめると、1000万は向こうから出します&lt;/div&gt;&lt;div&gt;⇨薫の名義に含める。&lt;/div&gt;&lt;div&gt;2040は最終的には私が払うし、+@の金利も40万以下で決まってます。&lt;/div&gt;&lt;div&gt;&lt;br&gt;&lt;/div&gt;" style="text;html=1;whiteSpace=wrap;overflow=hidden;rounded=0;" parent="3SkstiafYZ7fMF2HQmnw-2" vertex="1">
                    <mxGeometry x="10" y="30" width="310" height="370" as="geometry"/>
                </mxCell>
                <mxCell id="3SkstiafYZ7fMF2HQmnw-4" value="環境の話" style="swimlane;whiteSpace=wrap;html=1;startSize=20;" parent="1" vertex="1">
                    <mxGeometry x="840" y="40" width="340" height="450" as="geometry"/>
                </mxCell>
                <mxCell id="3SkstiafYZ7fMF2HQmnw-5" value="&lt;h1 style=&quot;margin-top: 0px;&quot;&gt;Heading&lt;/h1&gt;&lt;div&gt;2040万円を払うことに、そこまでの意義があるのかないのか?&lt;/div&gt;&lt;div&gt;一番大きい点は「&lt;b&gt;向こうの親も同じマンションに入居する&lt;/b&gt;」という話から今の話になっている。&lt;/div&gt;&lt;div&gt;出産育児を手伝っていただけることになってます。&lt;/div&gt;&lt;div&gt;なおかつ、完全に一緒に住むわけじゃなくて、プライベートも確保されたうえで、一緒に住めるというのがもう最高。要は、薫の負担が大幅に減るわけよ。&lt;/div&gt;&lt;div&gt;&lt;br&gt;&lt;/div&gt;&lt;div&gt;それだけじゃなくて、隣人トラブルがないと言い切れる&lt;/div&gt;&lt;div&gt;→この1年間理事会を通じてマンション内の交流を深めてきた。&lt;/div&gt;&lt;div&gt;→上下左右知っている人で、飲み会も定期的に開催するぐらい交流がある。&lt;/div&gt;&lt;div&gt;どうゆう人となりかもよくわかっている。&lt;/div&gt;&lt;div&gt;ついでに言えば、その人たち含めてマンションの管理組合の人は管理がすっごいしっかりしていて、1.8億たまってます（上位10%には入っている。+@マンション全体を建て替えれるレベルの積立金。）&lt;/div&gt;&lt;div&gt;&lt;br&gt;&lt;/div&gt;&lt;div&gt;周囲のマンションとも比べたんだけど&lt;/div&gt;&lt;div&gt;&lt;br&gt;&lt;/div&gt;&lt;div&gt;&lt;br&gt;&lt;/div&gt;&lt;div&gt;&lt;br&gt;&lt;/div&gt;" style="text;html=1;whiteSpace=wrap;overflow=hidden;rounded=0;" parent="3SkstiafYZ7fMF2HQmnw-4" vertex="1">
                    <mxGeometry x="10" y="30" width="310" height="410" as="geometry"/>
                </mxCell>
                <mxCell id="b4_Ncs32HFZQgM9vxh_t-1" value="資産の話" style="swimlane;whiteSpace=wrap;html=1;startSize=20;" parent="1" vertex="1">
                    <mxGeometry x="1241" y="40" width="340" height="520" as="geometry"/>
                </mxCell>
                <mxCell id="b4_Ncs32HFZQgM9vxh_t-2" value="&lt;h1 style=&quot;margin-top: 0px;&quot;&gt;Heading&lt;/h1&gt;&lt;div&gt;最後に資産の話です。&lt;/div&gt;&lt;div&gt;低めに見積もっても戸建てと条件はさほど変わらない。&lt;br&gt;&lt;/div&gt;&lt;div&gt;&lt;br&gt;&lt;/div&gt;&lt;div&gt;戸建てのメリットって、確かに土地は必ずついてくる。&lt;/div&gt;&lt;div&gt;→土地の値段にもよるけど、そこが確保できているというのは大きい。&lt;/div&gt;&lt;div&gt;だけどね、&lt;b&gt;10年たったら上物の価値はほぼ0&lt;/b&gt;になるの。&lt;/div&gt;&lt;div&gt;土地の値段は確実に確保できるけど、建物の値段は0になる。&lt;b&gt;和光市の三階建ての家駅地下を見たけど、1/3しか残らない。&lt;/b&gt;&lt;/div&gt;&lt;div&gt;&lt;br&gt;&lt;/div&gt;&lt;div&gt;マンションの価格は何でわかるか→相場で決まります。&lt;/div&gt;&lt;div&gt;財政力がない、修繕積立金がないマンションだったら、あっというまに価値が落ちて、廃墟になる。&lt;/div&gt;&lt;div&gt;さっき話した通り、このマンションには1.8億がある。&lt;/div&gt;&lt;div&gt;それだけじゃなくて、さっきも話した通りこのマンションの管理組合はすっごいしっかりしている&lt;/div&gt;&lt;div&gt;→マンションの管理会社：穴吹ハウジングサービスが&lt;/div&gt;&lt;div&gt;引くレベルのマンションおたくなわけ。&lt;/div&gt;&lt;div&gt;周りのマンションがどうなっているかも常にアンテナ張っているし、相場も気にしている。最高の管理状態。&lt;/div&gt;&lt;div&gt;&lt;br&gt;&lt;/div&gt;&lt;div&gt;→和光市全体の土地の価格って上がっている&lt;/div&gt;&lt;div&gt;→マンションの価値もどんなに低く見積もっても1/2にはならないし、上がる可能性が高い。&lt;/div&gt;&lt;div&gt;&lt;br&gt;&lt;/div&gt;&lt;div&gt;今回買おうと思ってるマンションに資産的な面でデメリットもない。&lt;/div&gt;" style="text;html=1;whiteSpace=wrap;overflow=hidden;rounded=0;" parent="b4_Ncs32HFZQgM9vxh_t-1" vertex="1">
                    <mxGeometry x="10" y="30" width="310" height="470" as="geometry"/>
                </mxCell>
                <mxCell id="b4_Ncs32HFZQgM9vxh_t-3" value="まとめ" style="swimlane;whiteSpace=wrap;html=1;startSize=20;" parent="1" vertex="1">
                    <mxGeometry x="1640" y="40" width="340" height="240" as="geometry"/>
                </mxCell>
                <mxCell id="b4_Ncs32HFZQgM9vxh_t-4" value="&lt;h1 style=&quot;margin-top: 0px;&quot;&gt;Heading&lt;/h1&gt;&lt;div&gt;これで最後、&lt;/div&gt;&lt;div&gt;「&lt;b&gt;向こうの親も同じマンションに入居する&lt;/b&gt;」それによって薫の負担が下がるということを一番に考えている。&lt;br&gt;&lt;/div&gt;&lt;div&gt;資産的なところも最後の最後までチェックして問題ないことを抑えた。パレステージ和光のマンションは住民の面でも資産的な面でも問題ない。&lt;/div&gt;&lt;div&gt;&lt;br&gt;&lt;/div&gt;&lt;div&gt;だから俺は俺と、薫のために買おうと思ってる。&lt;/div&gt;&lt;div&gt;&lt;br&gt;&lt;/div&gt;&lt;div&gt;&lt;br&gt;&lt;/div&gt;" style="text;html=1;whiteSpace=wrap;overflow=hidden;rounded=0;" parent="b4_Ncs32HFZQgM9vxh_t-3" vertex="1">
                    <mxGeometry x="10" y="30" width="310" height="210" as="geometry"/>
                </mxCell>
            </root>
        </mxGraphModel>
    </diagram>
    <diagram id="SdWDtHSQ3PRxiJJKlAN3" name="3/27">
        <mxGraphModel dx="902" dy="549" grid="1" gridSize="10" guides="1" tooltips="1" connect="1" arrows="1" fold="1" page="1" pageScale="1" pageWidth="827" pageHeight="1169" math="0" shadow="0">
            <root>
                <mxCell id="0"/>
                <mxCell id="1" parent="0"/>
                <mxCell id="CpOxr3M4tCx_cOBMShgT-1" value="前段" style="swimlane;whiteSpace=wrap;html=1;" parent="1" vertex="1">
                    <mxGeometry x="40" y="240" width="320" height="430" as="geometry"/>
                </mxCell>
                <mxCell id="CpOxr3M4tCx_cOBMShgT-2" value="&lt;h1 style=&quot;margin-top: 0px;&quot;&gt;Heading&lt;/h1&gt;&lt;div&gt;最終的には、現状維持です。&lt;/div&gt;&lt;div&gt;&lt;span style=&quot;background-color: initial;&quot;&gt;このまま101に住んでいくし、しばらくは家賃支払いになると思ってます。&lt;/span&gt;&lt;br&gt;&lt;/div&gt;&lt;div&gt;&lt;br&gt;&lt;/div&gt;&lt;div&gt;ただね、出産前までには落ち着きたいし&lt;/div&gt;&lt;div&gt;遅くとも子供が小学校入る前までが妥当な時期かなと思ってます。&lt;/div&gt;&lt;div&gt;→そこまでずっと家賃だと、家賃って極端な話捨てる金だから。お金の点で、落ち着くべきだと思う。&lt;/div&gt;&lt;div&gt;&lt;br&gt;&lt;/div&gt;&lt;div&gt;ただ、考慮時間が1週間は短かったし、それについても向こうの親と話してます。&lt;/div&gt;&lt;div&gt;こうゆうこと考えていたのであればもっと早めに話してほしいという風に言ったし、そこは納得してもらいました。&lt;/div&gt;&lt;div&gt;&lt;br&gt;&lt;/div&gt;&lt;div&gt;でも、マンション自体の話で行くとおれは資産は少なくとも落ちないと思う。&lt;/div&gt;&lt;div&gt;&lt;br&gt;&lt;/div&gt;&lt;div&gt;&lt;br&gt;&lt;/div&gt;" style="text;html=1;whiteSpace=wrap;overflow=hidden;rounded=0;" parent="CpOxr3M4tCx_cOBMShgT-1" vertex="1">
                    <mxGeometry x="10" y="30" width="310" height="400" as="geometry"/>
                </mxCell>
                <mxCell id="cpBcZgYPKQHLCi0j5f3B-1" value="&lt;span style=&quot;font-weight: 400; text-align: left;&quot;&gt;こうゆうこと&lt;/span&gt;" style="swimlane;whiteSpace=wrap;html=1;" parent="1" vertex="1">
                    <mxGeometry x="440" y="240" width="340" height="160" as="geometry"/>
                </mxCell>
                <mxCell id="cpBcZgYPKQHLCi0j5f3B-2" value="&lt;h1 style=&quot;margin-top: 0px;&quot;&gt;Heading&lt;/h1&gt;&lt;div&gt;・同じマンションに住むこと&lt;/div&gt;&lt;div&gt;・名義は1:1で支払うこと&lt;/div&gt;&lt;div&gt;・その際に育児などの面倒も一緒に見てくれること&lt;/div&gt;" style="text;html=1;whiteSpace=wrap;overflow=hidden;rounded=0;" parent="cpBcZgYPKQHLCi0j5f3B-1" vertex="1">
                    <mxGeometry x="10" y="30" width="310" height="120" as="geometry"/>
                </mxCell>
                <mxCell id="fJ0gMHYLRXLqGnPyuAHR-1" value="&lt;span style=&quot;font-weight: 400; text-align: left;&quot;&gt;line&lt;/span&gt;" style="swimlane;whiteSpace=wrap;html=1;" parent="1" vertex="1">
                    <mxGeometry x="40" y="40" width="340" height="160" as="geometry"/>
                </mxCell>
                <mxCell id="fJ0gMHYLRXLqGnPyuAHR-2" value="&lt;h1 style=&quot;margin-top: 0px;&quot;&gt;&lt;br&gt;&lt;/h1&gt;&lt;div&gt;&lt;div&gt;色々考えたけどマンション購入は一度なしにして他も見てみます&lt;/div&gt;&lt;div&gt;なので今週日曜日の訪問もとりあえず大丈夫です&lt;/div&gt;&lt;div&gt;急な連絡でご心配おかけしました&lt;/div&gt;&lt;/div&gt;" style="text;html=1;whiteSpace=wrap;overflow=hidden;rounded=0;" parent="fJ0gMHYLRXLqGnPyuAHR-1" vertex="1">
                    <mxGeometry x="10" y="30" width="310" height="120" as="geometry"/>
                </mxCell>
            </root>
        </mxGraphModel>
    </diagram>
    <diagram id="T59RPXPjRiN5-wR8p1Ta" name="罠を置く">
        <mxGraphModel dx="902" dy="549" grid="1" gridSize="10" guides="1" tooltips="1" connect="1" arrows="1" fold="1" page="1" pageScale="1" pageWidth="827" pageHeight="1169" math="0" shadow="0">
            <root>
                <mxCell id="0"/>
                <mxCell id="1" parent="0"/>
                <mxCell id="7hIS9hSXeMiG4SoWA7Pw-1" value="&lt;h1 style=&quot;margin-top: 0px;&quot;&gt;飛車を取れる！&lt;/h1&gt;&lt;div&gt;&lt;br&gt;&lt;/div&gt;&lt;div&gt;と思わせて、&lt;/div&gt;&lt;div&gt;角銀金と交換させる手口。&lt;/div&gt;&lt;div&gt;&lt;br&gt;&lt;/div&gt;&lt;div&gt;&lt;br&gt;&lt;/div&gt;&lt;div&gt;&lt;br&gt;&lt;/div&gt;" style="text;html=1;whiteSpace=wrap;overflow=hidden;rounded=0;" parent="1" vertex="1">
                    <mxGeometry x="50" y="70" width="310" height="290" as="geometry"/>
                </mxCell>
            </root>
        </mxGraphModel>
    </diagram>
</mxfile>